<svg width="1165" height="308" viewBox="0 0 1165 308" xmlns="http://www.w3.org/2000/svg"><g fill-rule="nonzero" fill="none"><path d="M4.146 61.885 43.03 282.408c2.712 15.385 19.958 22.92 30.25 21.105l180.096-31.756L205.449-.05 25.352 31.706C9.915 34.428 1.432 46.5 4.146 61.885Z" fill="#008A00"/><path fill="#60A917" d="m85.966 249.49 158.554-27.958L205.449-.05 46.895 27.908z"/><path d="M31.243 63.161c-10.378 1.83-18.448 6.393-24.69 12.375l9.915 56.233c6.076-8.927 13.932-15.74 23.79-17.478l179.763-31.697-9.015-51.13L31.243 63.161Z" fill="#000"/><path d="M52.827 274.626c1.823 10.34 8.79 19.774 24.218 17.053l164.573-29.018-7.294-41.362-164.572 29.018c-15.429 2.72-18.748 13.968-16.925 24.309ZM391.984 223c15.105 0 28.418-2.734 39.942-8.203 11.523-5.469 20.556-13.574 27.1-24.317 6.542-10.742 9.814-23.828 9.814-39.257 0-17.318-3.434-31.625-10.303-42.92-6.868-11.296-16.178-19.532-27.93-24.707-11.75-5.176-25.211-7.764-40.38-7.764h-79.395v25h22.363V198h-22.363v25h81.152Zm-11.62-25h-8.985v-97.168h12.988c14.584 0 25.635 4.134 33.154 12.402 7.52 8.269 11.28 20.508 11.28 36.72 0 9.374-1.205 17.496-3.613 24.364-2.41 6.869-7.178 12.533-14.307 16.993-7.129 4.46-17.302 6.689-30.518 6.689Zm151.84 27.441c9.83 0 18.847-2.31 27.05-6.933 8.203-4.623 14.713-11.035 19.531-19.238 4.818-8.204 7.227-17.416 7.227-27.637 0-10.156-2.311-19.304-6.934-27.442-4.622-8.138-11.035-14.534-19.238-19.189-8.203-4.655-17.416-6.982-27.637-6.982-10.026 0-19.173 2.327-27.441 6.982-8.269 4.655-14.763 11.051-19.483 19.19-4.72 8.137-7.08 17.285-7.08 27.44 0 10.222 2.295 19.434 6.885 27.638 4.59 8.203 10.986 14.615 19.19 19.238 8.203 4.622 17.512 6.933 27.93 6.933Zm-1.196-25.488c-6.12 0-11.02-2.523-14.697-7.568-3.679-5.046-5.518-11.703-5.518-19.97 0-9.767 1.693-17.075 5.078-21.925 3.386-4.85 8.366-7.275 14.942-7.275 6.51 0 11.572 2.458 15.185 7.373 3.613 4.915 5.42 11.735 5.42 20.459 0 9.31-1.807 16.455-5.42 21.435s-8.61 7.471-14.99 7.471ZM622.145 223l21.484-28.809L663.355 223h39.454v-23.633h-14.063l-23.926-30.566 20.606-24.414h13.77v-24.024H668.14l-19.922 28.223-18.457-28.223H590.21v24.024h14.941L627.418 173l-22.266 26.367h-14.941V223h31.934ZM745.68 109.23c4.883 0 9.098-1.709 12.646-5.126 3.548-3.418 5.322-7.732 5.322-12.94 0-4.883-1.774-9.098-5.322-12.646-3.548-3.549-7.764-5.323-12.646-5.323-4.948 0-9.196 1.774-12.744 5.323-3.549 3.548-5.323 7.763-5.323 12.646 0 4.948 1.774 9.196 5.323 12.744 3.548 3.548 7.796 5.322 12.744 5.322ZM776.832 223v-23.633h-15.234v-79.004h-48.145v24.024h15.625v54.98h-15.625V223h63.379Zm59.504 2.441c13.346 0 23.958-2.539 31.836-7.617 7.877-5.078 14.616-12.89 20.215-23.437l-25.39-11.23c-2.93 5.208-6.707 9.244-11.329 12.109-4.622 2.864-9.505 4.296-14.648 4.296-7.097 0-12.777-2.652-17.041-7.958-4.265-5.306-6.397-12.094-6.397-20.362 0-7.487 2.23-13.737 6.69-18.75 4.46-5.013 10.107-7.52 16.943-7.52 11.198 0 19.531 5.665 25 16.993h23.144v-41.602h-22.363v8.594c-9.896-6.64-20.247-9.96-31.055-9.96-9.44 0-18.131 2.294-26.074 6.884-7.943 4.59-14.241 10.889-18.896 18.896-4.655 8.008-6.983 17.025-6.983 27.051 0 16.797 5.062 29.932 15.186 39.404 10.124 9.473 23.844 14.21 41.162 14.21Zm96.484-116.21c4.883 0 9.099-1.71 12.647-5.127 3.548-3.418 5.322-7.732 5.322-12.94 0-4.883-1.774-9.098-5.322-12.646-3.548-3.549-7.764-5.323-12.647-5.323-4.948 0-9.196 1.774-12.744 5.323-3.548 3.548-5.322 7.763-5.322 12.646 0 4.948 1.774 9.196 5.322 12.744s7.796 5.322 12.744 5.322ZM963.973 223v-23.633h-15.235v-79.004h-48.144v24.024h15.625v54.98h-15.625V223h63.379Zm41.21 1.562c7.748 0 16.016-1.725 24.805-5.175v-22.754c-3.971 1.432-7.356 2.148-10.156 2.148-3.385 0-5.697-.797-6.934-2.392-1.237-1.595-1.855-3.988-1.855-7.178v-44.824h18.945v-24.024h-18.945V81.008l-32.617 23.437v15.918h-12.989v24.024h12.989v54.199c0 8.268 2.23 14.665 6.69 19.19 4.459 4.524 11.148 6.786 20.068 6.786Zm96.094 44.63 48.926-124.805h14.844v-24.024h-54.004v24.024h13.379l-18.164 45.8-17.188-45.8h12.207v-24.024h-61.62v24.024h14.94l37.208 83.008-6.739 18.164h-19.628v23.632h35.84Z" fill="#FFF"/></g></svg>
