<?xml version="1.0" encoding="UTF-8"?>
<svg width="356px" height="356px" viewBox="0 0 356 356" version="1.1" xmlns="http://www.w3.org/2000/svg" xmlns:xlink="http://www.w3.org/1999/xlink">
    <title>Slice</title>
    <g id="Page-1" stroke="none" stroke-width="1" fill="none" fill-rule="evenodd">
        <g id="logo" transform="translate(178.500000, 178.000000) rotate(-10.000000) translate(-178.500000, -178.000000) translate(74.000000, 40.000000)" fill-rule="nonzero">
            <path d="M0,26.0377358 L0,249.962264 C0,265.584906 15.675,276 26.125,276 L209,276 L209,0 L26.125,0 C10.45,0 0,10.4150943 0,26.0377358 Z" id="path3978" fill="#008A00"></path>
            <polygon id="path3982" fill="#60A917" points="48 225 209 225 209 0 48 0"></polygon>
            <path d="M26.4636898,32 C15.9264284,32 7.18676735,35.0923141 0,39.8993752 L0,97 C7.53380559,89.2635324 16.4537291,83.9188796 26.4636898,83.9188796 L209,83.9188796 L209,32 L26.4636898,32 Z" id="path3989" fill="#002400"></path>
            <path d="M11,244 C11,254.5 16.2222222,265 31.8888889,265 L199,265 L199,223 L31.8888889,223 C16.2222222,223 11,233.5 11,244 Z" id="path3980" fill="#FFFFFF"></path>
        </g>
    </g>
</svg>