<svg width="308" height="308" viewBox="0 0 308 308" xmlns="http://www.w3.org/2000/svg"><g fill-rule="nonzero" fill="none"><path d="M32.146 61.885 71.03 282.408c2.712 15.385 19.958 22.92 30.25 21.105l180.096-31.756L233.449-.05 53.352 31.706C37.915 34.428 29.432 46.5 32.146 61.885Z" fill="#008A00"/><path fill="#60A917" d="m113.966 249.49 158.554-27.958L233.449-.05 74.895 27.908z"/><path d="M59.243 63.161c-10.378 1.83-18.448 6.393-24.69 12.375l9.915 56.233c6.076-8.927 13.932-15.74 23.79-17.478l179.763-31.697-9.015-51.13L59.243 63.161Z" fill="#000"/><path d="M80.827 274.626c1.823 10.34 8.79 19.774 24.218 17.053l164.573-29.018-7.294-41.362-164.572 29.018c-15.429 2.72-18.748 13.968-16.925 24.309Z" fill="#FFF"/></g></svg>
