<?xml version="1.0" encoding="UTF-8"?>
<svg width="1165px" height="308px" viewBox="0 0 1165 308" version="1.1" xmlns="http://www.w3.org/2000/svg" xmlns:xlink="http://www.w3.org/1999/xlink">
    <title>wordmark</title>
    <g id="Page-1" stroke="none" stroke-width="1" fill="none" fill-rule="evenodd">
        <g id="wordmark" transform="translate(-0.375859, -0.049704)" fill-rule="nonzero">
            <g id="book" transform="translate(126.875859, 154.049704) rotate(-10.000000) translate(-126.875859, -154.049704) translate(22.375859, 16.049704)">
                <path d="M0,26.0377358 L0,249.962264 C0,265.584906 15.675,276 26.125,276 L209,276 L209,0 L26.125,0 C10.45,0 0,10.4150943 0,26.0377358 Z" id="path3978" fill="#008A00"></path>
                <polygon id="path3982" fill="#60A917" points="48 225 209 225 209 0 48 0"></polygon>
                <path d="M26.4636898,32 C15.9264284,32 7.18676735,35.0923141 0,39.8993752 L0,97 C7.53380559,89.2635324 16.4537291,83.9188796 26.4636898,83.9188796 L209,83.9188796 L209,32 L26.4636898,32 Z" id="path3989" fill="#000000"></path>
                <path d="M11,244 C11,254.5 16.2222222,265 31.8888889,265 L199,265 L199,223 L31.8888889,223 C16.2222222,223 11,233.5 11,244 Z" id="path3980" fill="#FFFFFF"></path>
            </g>
            <path d="M392.360234,223.049704 C407.4644,223.049704 420.778202,220.315329 432.30164,214.846579 C443.825077,209.377829 452.858281,201.272361 459.401249,190.530173 C465.944218,179.787986 469.215702,166.702048 469.215702,151.272361 C469.215702,133.954652 465.781458,119.648012 458.912968,108.352439 C452.044478,97.0568659 442.734583,88.8211889 430.983281,83.6454076 C419.231978,78.4696264 405.771692,75.8817357 390.602421,75.8817357 L390.602421,75.8817357 L311.20789,75.8817357 L311.20789,100.881736 L333.571171,100.881736 L333.571171,198.049704 L311.20789,198.049704 L311.20789,223.049704 L392.360234,223.049704 Z M380.73914,198.049704 L371.754765,198.049704 L371.754765,100.881736 L384.743046,100.881736 C399.32638,100.881736 410.377812,105.01585 417.897343,113.284079 C425.416874,121.552309 429.17664,133.791892 429.17664,150.002829 C429.17664,159.377829 427.972213,167.499574 425.563359,174.368064 C423.154505,181.236553 418.385624,186.900616 411.256718,191.360251 C404.127812,195.819887 393.955286,198.049704 380.73914,198.049704 L380.73914,198.049704 Z M532.578984,225.491111 C542.409713,225.491111 551.42664,223.179913 559.629765,218.557517 C567.83289,213.935121 574.343307,207.522361 579.161015,199.319236 C583.978723,191.116111 586.387577,181.903871 586.387577,171.682517 C586.387577,161.526267 584.07638,152.379132 579.453984,144.241111 C574.831588,136.10309 568.418827,129.706606 560.215702,125.051658 C552.012577,120.39671 542.800338,118.069236 532.578984,118.069236 C522.552942,118.069236 513.405807,120.39671 505.137577,125.051658 C496.869348,129.706606 490.375208,136.10309 485.655156,144.241111 C480.935103,152.379132 478.575077,161.526267 478.575077,171.682517 C478.575077,181.903871 480.869999,191.116111 485.459843,199.319236 C490.049687,207.522361 496.446171,213.935121 504.649296,218.557517 C512.852421,223.179913 522.162317,225.491111 532.578984,225.491111 Z M531.383671,200.002829 C525.26388,200.002829 520.364791,197.480043 516.686406,192.43447 C513.00802,187.388897 511.168827,180.731996 511.168827,172.463767 C511.168827,162.698142 512.861536,155.390199 516.246952,150.539939 C519.632369,145.689678 524.612838,143.264548 531.188359,143.264548 C537.698775,143.264548 542.760624,145.722231 546.373906,150.637595 C549.987187,155.55296 551.793827,162.372621 551.793827,171.096579 C551.793827,180.406475 549.987187,187.551658 546.373906,192.532126 C542.760624,197.512595 537.76388,200.002829 531.383671,200.002829 Z M622.52039,223.049704 L644.004765,194.241111 L663.731327,223.049704 L703.184452,223.049704 L703.184452,199.416892 L689.121952,199.416892 L665.196171,168.850486 L685.80164,144.436423 L699.571171,144.436423 L699.571171,120.412986 L668.516484,120.412986 L648.594609,148.635642 L630.137577,120.412986 L590.586796,120.412986 L590.586796,144.436423 L605.528202,144.436423 L627.793827,173.049704 L605.528202,199.416892 L590.586796,199.416892 L590.586796,223.049704 L622.52039,223.049704 Z M746.055546,109.280173 C750.938359,109.280173 755.153853,107.571189 758.702031,104.15322 C762.250208,100.735251 764.024296,96.4221003 764.024296,91.213767 C764.024296,86.3309545 762.250208,82.1154597 758.702031,78.5672826 C755.153853,75.0191055 750.938359,73.245017 746.055546,73.245017 C741.10763,73.245017 736.859583,75.0191055 733.311406,78.5672826 C729.763228,82.1154597 727.98914,86.3309545 727.98914,91.213767 C727.98914,96.1616836 729.763228,100.409731 733.311406,103.957908 C736.859583,107.506085 741.10763,109.280173 746.055546,109.280173 Z M777.20789,223.049704 L777.20789,199.416892 L761.973515,199.416892 L761.973515,120.412986 L713.828984,120.412986 L713.828984,144.436423 L729.453984,144.436423 L729.453984,199.416892 L713.828984,199.416892 L713.828984,223.049704 L777.20789,223.049704 Z M836.711796,225.491111 C850.05815,225.491111 860.67013,222.952048 868.547734,217.873923 C876.425338,212.795798 883.163619,204.983298 888.762577,194.436423 L888.762577,194.436423 L863.371952,183.205954 C860.442265,188.414288 856.666223,192.450746 852.043827,195.315329 C847.421432,198.179913 842.538619,199.612204 837.39539,199.612204 C830.299036,199.612204 824.618697,196.95921 820.354374,191.65322 C816.090051,186.347231 813.95789,179.560121 813.95789,171.291892 C813.95789,163.804913 816.187708,157.554913 820.647343,152.541892 C825.106978,147.528871 830.754765,145.022361 837.590702,145.022361 C848.788619,145.022361 857.121952,150.686423 862.590702,162.014548 L862.590702,162.014548 L885.735234,162.014548 L885.735234,120.412986 L863.371952,120.412986 L863.371952,129.006736 C853.476119,122.366111 843.124557,119.045798 832.317265,119.045798 C822.877161,119.045798 814.185755,121.34072 806.243046,125.930564 C798.300338,130.520408 792.00151,136.819236 787.346562,144.827048 C782.691614,152.834861 780.36414,161.851788 780.36414,171.877829 C780.36414,188.674704 785.425989,201.80947 795.549687,211.282126 C805.673385,220.754783 819.394088,225.491111 836.711796,225.491111 Z M933.196171,109.280173 C938.078984,109.280173 942.294478,107.571189 945.842656,104.15322 C949.390833,100.735251 951.164921,96.4221003 951.164921,91.213767 C951.164921,86.3309545 949.390833,82.1154597 945.842656,78.5672826 C942.294478,75.0191055 938.078984,73.245017 933.196171,73.245017 C928.248255,73.245017 924.000208,75.0191055 920.452031,78.5672826 C916.903853,82.1154597 915.129765,86.3309545 915.129765,91.213767 C915.129765,96.1616836 916.903853,100.409731 920.452031,103.957908 C924.000208,107.506085 928.248255,109.280173 933.196171,109.280173 Z M964.348515,223.049704 L964.348515,199.416892 L949.11414,199.416892 L949.11414,120.412986 L900.969609,120.412986 L900.969609,144.436423 L916.594609,144.436423 L916.594609,199.416892 L900.969609,199.416892 L900.969609,223.049704 L964.348515,223.049704 Z M1005.55945,224.612204 C1013.30685,224.612204 1021.57508,222.886944 1030.36414,219.436423 L1030.36414,219.436423 L1030.36414,196.682517 C1026.39279,198.114809 1023.00737,198.830954 1020.20789,198.830954 C1016.82247,198.830954 1014.51128,198.033428 1013.2743,196.438376 C1012.03732,194.843324 1011.41883,192.450746 1011.41883,189.260642 L1011.41883,189.260642 L1011.41883,144.436423 L1030.36414,144.436423 L1030.36414,120.412986 L1011.41883,120.412986 L1011.41883,81.057517 L978.80164,104.495017 L978.80164,120.412986 L965.813359,120.412986 L965.813359,144.436423 L978.80164,144.436423 L978.80164,198.635642 C978.80164,206.903871 981.031458,213.300356 985.491093,217.825095 C989.950728,222.349835 996.640182,224.612204 1005.55945,224.612204 Z M1101.6532,269.241111 L1150.57898,144.436423 L1165.42273,144.436423 L1165.42273,120.412986 L1111.41883,120.412986 L1111.41883,144.436423 L1124.79773,144.436423 L1106.63367,190.237204 L1089.44617,144.436423 L1101.6532,144.436423 L1101.6532,120.412986 L1040.03211,120.412986 L1040.03211,144.436423 L1054.97351,144.436423 L1092.18055,227.444236 L1085.44226,245.608298 L1065.81336,245.608298 L1065.81336,269.241111 L1101.6532,269.241111 Z" id="Text-(Rockwell-Bold)" fill="#000000"></path>
        </g>
    </g>
</svg>